<svg id="Layer_1" enable-background="new 0 0 52 52" height="512" viewBox="0 0 52 52" width="512" xmlns="http://www.w3.org/2000/svg"><g id="_x31_37"><g><g><g><g><g><g><g><path d="m49.1855278 34.1134186-13.6105118-7.9096012-23.2197704 13.4059162.0048943.0028305c-.0002356.000061-.0061331.0008278-.0061331.0008278l-.0082569 2.274292 13.6102724 7.9083061c.4709911.2726479 1.2395229.2726479 1.718771 0l21.4937477-12.4119759c.239624-.1404839.3635941-.3223114.3635941-.5040779v-2.2543602c.0085525-.18507-.1037408-.3710251-.3466073-.5121574z" fill="#dedffb"/></g><g><path d="m35.0459938 9.0001259c-.0162201 0-.0279579-.0102625-.0447044-.0087881.0168647-.0014153.0284271.008729.0447044.0087881z" fill="#1d2943"/></g><g><g><g><g><g><g><g><path d="m17.7786942 36.3857651c0 .1022263-.0361614.1761208-.095892.2107086l-2.3270702 1.3522072c.0597496-.0346069-.2168341-.0507851-.2168341-.1545448.0015736-.2107048.0511646-.3330154-.1312132-.4383698-.0912085-.0534554-.0607767-.2482834-.1205072-.2136955l2.3270712-1.352211c.0597305-.0346069.1430683-.0298843.2342777.0235901.1823768.1053352.3317413.3616256.3301678.5723152z" fill="#4c5c75"/></g></g></g><g><g><g><path d="m15.1217432 37.1654854c.1827002.105484.3307953.3619919.3302002.5719452-.0005922.2087784-.1496544.2937241-.3323555.1882439-.1827135-.1054916-.3298006-.3614197-.3292084-.5701981.0005951-.2099533.1486502-.2954788.3313637-.189991z" fill="#1d2943"/></g></g></g></g><g><g><g><g><path d="m32.8228378 27.6429005c0 .1022263-.0361595.1761208-.09589.2107086l-2.3270721 1.3522091c.0597496-.0346069-.109066-.1126289-.109066-.2163887.0015736-.2107086-.0861359-.2723122-.2685127-.3776665-.0912094-.0534534-.0312443-.2471447-.0909748-.2125568l2.3270702-1.3522091c.0597305-.034605.1430702-.0298843.2342796.0235901.1823768.1053333.3317413.3616256.3301658.5723133z" fill="#4c5c75"/></g></g></g><g><g><g><path d="m30.1658878 28.4226227c.1827011.1054821.3307953.3619919.3302002.5719452-.0005932.2087784-.1496544.293726-.3323555.1882439-.1827145-.1054916-.3298016-.3614197-.3292084-.5701981.0005951-.2099533.1486493-.2954808.3313637-.189991z" fill="#1d2943"/></g></g></g></g><g><g><g><g><path d="m35.2771759 9.0482693c-.1551018-.0916548.163578.298152-.0761223.4391413l-22.8473444 29.2595071-1.8016243-1.04776-.0458279-15.742918c0-.5464001.3807125-1.2090931.8565874-1.4840584l21.4993535-12.4117298c.2397003-.1374831.458252-.1515756.6133575-.0599422z" fill="#1d2943"/></g></g></g></g><g><g><g><path d="m35.5720139 25.3400497-23.2196866 13.4058609-.0447655-15.7419567c-.0016003-.5456543.382062-1.2096043.8568544-1.4840336l21.5006572-12.4131431c.474781-.2744217.8611069-.0543537.862175.4913015z" fill="#4c5c75"/></g></g></g><g><g><g><g><path d="m49.5321426 34.6139069v2.2660217c0 .1817741-.1239738.3636017-.3636017.5040703l-21.4937362 12.4120025c-.4792557.2726631-1.247818.2726631-1.7188015 0l-13.6102409-7.9083099.0082722-2.274292c-.0000001 0 37.1781081-4.8176689 37.1781081-4.9994926z" fill="#dedffb"/></g></g></g></g><g><g><g><g><path d="m12.3552351 39.6097336 13.6105585 7.9095917c.471796.2741776 1.2390118.2741814 1.713892.0000114l21.4980373-12.4118996c.4771233-.2754669.4796257-.7198677.0078316-.9940453l-13.6105576-7.9095936z" fill="#f8f9fe"/></g></g></g></g><g><g><g><path d="m30.0353317 40.8177414 3.0488892 1.7607002c.2581749.1489677.5762367.1485138.8339577-.0013771l6.6017647-3.8308067c.0963631-.0559044.1582909-.1411095.1873856-.2348824-.0292015-.0940437-.0914459-.1794319-.1882935-.2352028l-3.0489006-1.7606964c-.2581825-.1489716-.5766945-.1485176-.8344116.0013695l-6.6013126 3.8308105c-.0963612.0559082-.158287.1411133-.1873837.2348824.0291995.0940437.0914478.1794281.1883048.2352028z" fill="#dedffb"/></g></g></g><g><g><g><g><path d="m30.3097916 35.982975c-.0545025.0314674-.0547867.0822678-.0006351.1137352l1.0518322.6112595c.0540009.0313797.1417027.0313835.1962051-.0000839l1.058712-.611248c.0543556-.0313835.0546417-.0821838.0006409-.1135674l-1.0518322-.6112556c-.0541515-.0314713-.1418533-.0314713-.196209-.0000877z" fill="#4c5c75"/></g></g></g><g><g><g><path d="m23.3796444 41.9414253c-.0543518.0313797-.0546417.0821838-.000639.1135635l1.0518322.6112595c.0539989.0313797.1418552.0314674.1962051.0000877l1.0587139-.611248c.0543556-.0313835.0546417-.0823555.0006428-.113739l-1.0518322-.6112595c-.0540028-.0313797-.1418552-.0312958-.1962109.0000877z" fill="#4c5c75"/></g></g></g><g><g><g><path d="m25.1035233 40.9461441c-.0543518.0313797-.0546417.08218-.000639.1135635l1.0518322.6112595c.0539989.0313797.1418552.0314674.196207.0000877l1.058712-.6112518c.0545063-.0314674.0546417-.0823555.0006428-.1137352l-1.0518322-.6112595c-.0540028-.0313835-.1417046-.0313835-.1962109.0000877z" fill="#4c5c75"/></g></g></g><g><g><g><path d="m26.8275566 39.9507713c-.0543556.0313835-.0546417.0821838-.000639.1135674l1.0518322.6112556c.0540009.0313835.1418514.0314713.196207.0000877l9.6784153-5.5878372c.0543556-.0313835.0546455-.0823555.0006447-.113739l-1.0518341-.6112556c-.0540009-.0313835-.1418533-.0312958-.196209.0000839z" fill="#4c5c75"/></g></g></g><g><g><g><path d="m28.5859127 36.9782562c-.0545063.0314674-.0547905.0822716-.0006409.113739l1.0518322.6112556c.0540028.0313835.1417046.0313835.1962109-.0000839l1.058712-.611248c.0543556-.0313835.0546417-.0821838.000639-.1135635l-1.0518303-.6112595c-.0541515-.0314674-.1418533-.0314713-.196209-.0000877z" fill="#4c5c75"/></g></g></g><g><g><g><path d="m26.86203 37.9735413c-.0545025.0314674-.0547905.0822678-.0006409.113739l1.0518322.6112556c.0540028.0313835.1417084.0313835.1962109-.0000839l1.058712-.611248c.0543556-.0313835.0546417-.0821838.000639-.1135674l-1.0518322-.6112556c-.0541496-.0314713-.1418533-.0314713-.196209-.0000877z" fill="#4c5c75"/></g></g></g><g><g><g><path d="m25.1726246 36.9919395c-.0543518.0313797-.0546417.0821838-.0006409.1135635l1.0518341.6112595c.0539989.0313797.1418552.0314674.1962051.0000877l1.0588646-.6113358c.0543556-.0313835.054491-.0822716.0004921-.1136513l-1.0518341-.6112595c-.0540009-.0313797-.1417027-.0313797-.1960583 0z" fill="#4c5c75"/></g></g></g><g><g><g><path d="m23.4487457 37.9872208c-.0543556.0313835-.0546417.0821838-.0006409.1135635l1.0518341.6112595c.0539989.0313835.1418495.0314713.1962051.0000877l1.0588646-.6113358c.0543518-.0313797.054491-.0822678.0004921-.1136513l-1.0518341-.6112595c-.0540009-.0313797-.1417065-.0313797-.1960583 0z" fill="#4c5c75"/></g></g></g><g><g><g><path d="m18.3112755 38.9960136c-.0543499.0313797-.0546379.08218-.0004883.1136513l1.0518322.6112556c.0540009.0313835.1417065.0313835.1960583.0000038l1.0587139-.611248c.0543556-.0313835.0547924-.0822716.0007896-.1136551l-1.0518322-.6112556c-.0541496-.0314674-.142004-.0313835-.1963596 0z" fill="#4c5c75"/></g></g></g><g><g><g><path d="m20.0008335 39.9778748c-.0543518.0313797-.0546417.0821838-.0006428.1135635l1.0518341.6112595c.0540009.0313797.1418552.0314674.196207.0000877l2.7825928-1.6065331c.0545063-.0314674.0546417-.0823555.0006409-.1137352l-1.0518341-.6112595c-.0539989-.0313835-.1417007-.0313835-.196207.0000877z" fill="#4c5c75"/></g></g></g><g><g><g><path d="m21.6900883 40.9595642c-.0543518.0313797-.0546398.08218-.0004902.1136513l1.0518322.6112556c.0540028.0313835.1417084.0313835.1960583.0000038l4.5067768-2.6019897c.0543518-.0313797.0546417-.0821838.000639-.1135635l-1.0518322-.6112595c-.0541496-.0314674-.1418571-.0314674-.196209-.0000877z" fill="#4c5c75"/></g></g></g><g><g><g><path d="m20.0351543 38.0007286c-.0543499.0313797-.0546379.0821838-.0004883.1136551l1.0518322.6112556c.0540028.0313835.1417065.0313797.1960583 0l1.0587139-.611248c.0545063-.0314674.0547924-.0822678.0007896-.1136513l-1.0518322-.6112556c-.0541496-.0314713-.1418533-.0314713-.1963596-.0000038z" fill="#4c5c75"/></g></g></g><g><g><g><path d="m21.7591896 37.0053596c-.0543556.0313797-.0546398.0821838-.0004902.1136513l1.0518322.6112595c.0540028.0313797.1417027.0313797.1960583 0l1.0588646-.6113358c.0543518-.0313797.0546417-.0821838.000639-.1135635l-1.0518322-.6112595c-.0541496-.0314674-.1418571-.0314674-.196209-.0000877z" fill="#4c5c75"/></g></g></g><g><g><g><path d="m23.4830685 36.0100784c-.0543518.0313797-.0546398.08218-.0004902.1136513l1.0518322.6112556c.0540028.0313835.1417084.0313835.1960583.0000038l1.0588646-.6113358c.0543556-.0313835.0546417-.0821838.000639-.1135674l-1.0518322-.6112556c-.0541496-.0314713-.1418533-.0314713-.196209-.0000877z" fill="#4c5c75"/></g></g></g><g><g><g><path d="m26.8966579 35.9965668c-.0545063.0314713-.0547924.0822716-.0007915.1136513l1.0518341.6112595c.0539989.0313835.1418514.0314713.1963577 0l1.058712-.611248c.0543556-.0313835.054493-.0822678.0004921-.1136513l-1.0518341-.6112595c-.0540009-.0313797-.1417007-.0313797-.1960564 0z" fill="#4c5c75"/></g></g></g><g><g><g><path d="m25.2071018 35.0147057c-.0545063.0314674-.0547905.0822716-.0006409.113739l1.0518322.6112556c.0540028.0313835.1417046.0313835.1962109-.0000839l1.058712-.611248c.0543556-.0313835.0546417-.0821838.000639-.1135635l-1.0518322-.6112595c-.0541496-.0314674-.1418533-.0314713-.196209-.0000877z" fill="#4c5c75"/></g></g></g><g><g><g><path d="m33.7577057 33.992321c-.0543518.0313797-.0546417.0821838-.0004921.1136513l1.0518341.6112595c.0540009.0313797.1417084.0313797.1960602 0l1.058712-.611248c.0543556-.0313835.0547905-.0822716.0007896-.1136513l-1.0518341-.6112595c-.0541496-.0314674-.1420021-.0313835-.1963577 0z" fill="#4c5c75"/></g></g></g><g><g><g><path d="m32.0338249 34.9876022c-.0543556.0313835-.0547886.0822716-.0006409.113739l1.0518341.6112595c.0540009.0313797.1418533.0312958.196209-.0000877l1.058712-.611248c.0543556-.0313835.0547943-.0822678.0007896-.1136513l-1.0518303-.6112595c-.0541496-.0314674-.1420059-.0313835-.1963615 0z" fill="#4c5c75"/></g></g></g><g enable-background="new"><g><g><g><path d="m30.3788929 32.0287704c-.0543518.0313797-.0546398.0821838-.0004883.1136513l1.0518303.6112595c.0540028.0313797.1417084.0313797.1960602 0l1.0587139-.611248c.0543556-.0313835.0547905-.0822716.0007896-.1136513l-1.0518322-.6112595c-.0541515-.0314674-.142004-.0313835-.1963596 0z" fill="#4c5c75"/></g></g></g><g><g><g><path d="m32.0684509 33.0106316c-.0543518.0313797-.0546417.0821838-.0006409.1135635l1.0518341.6112595c.053997.0313835.1418533.0314674.1962051.0000877l1.058712-.611248c.0543556-.0313835.0546417-.0823555.0006447-.113739l-1.0518341-.6112595c-.0540009-.0313797-.1418533-.031292-.196209.0000877z" fill="#4c5c75"/></g></g></g><g><g><g><path d="m28.655014 33.0240517c-.0543556.0313835-.0547905.0822716-.0006409.113739l1.0518322.6112595c.0540028.0313797.1418552.0312958.1962109-.0000877l1.058712-.611248c.0543556-.0313835.0547924-.0822678.0007896-.1136513l-1.0518303-.6112595c-.0541515-.0314674-.142004-.0313835-.1963596 0z" fill="#4c5c75"/></g></g></g><g><g><g><path d="m30.3445702 34.0059166c-.0543556.0313797-.0547924.0822678-.0007915.1136475l1.0518341.6112595c.0540009.0313835.1420021.0313835.1963577 0l1.0587139-.611248c.0543556-.0313797.0546417-.0823555.0006409-.1137352l-1.0518341-.6112595c-.0540009-.0313835-.1418514-.0312958-.196207.0000877z" fill="#4c5c75"/></g></g></g><g><g><g><path d="m26.9309807 34.0194244c-.0545025.0314674-.0547867.0822678-.0006371.1137352l1.0518322.6112595c.0540028.0313797.1417046.0313835.196207-.0000839l1.058712-.611248c.0543556-.0313835.0546417-.0821838.000639-.1135674l-1.0518322-.6112556c-.0541496-.0314713-.1418533-.0314713-.196209-.0000877z" fill="#4c5c75"/></g></g></g><g><g><g><path d="m28.6205368 35.0012856c-.0545025.0314674-.0547886.0822678-.0007877.1136475l1.0518341.6112595c.0540009.0313835.1418514.0314713.1963539.0000038l1.058712-.611248c.0543556-.0313835.054493-.0822716.0004921-.1136513l-1.0518341-.6112595c-.0540009-.0313797-.1417007-.0313835-.1960564 0z" fill="#4c5c75"/></g></g></g></g><g><g><g><path d="m37.1711426 33.9789009c-.0543556.0313797-.0546417.08218-.0006371.1135635l1.0518303.6112556c.0540009.0313835.1418533.0314713.196209.0000877l1.058712-.611248c.0545044-.0314674.0546417-.0823555.0006409-.1137352l-1.0518303-.6112595c-.0540047-.0313835-.1417046-.0313835-.196209.0000877z" fill="#4c5c75"/></g></g></g><g enable-background="new"><g><g><g><path d="m33.8268051 30.0381165c-.0543518.0313797-.0546379.0821838-.0004883.1136513l1.0518303.6112595c.0540047.0313816.1417084.0313797.1960602 0l1.058712-.611248c.0545082-.0314693.0547943-.0822697.0007896-.1136513l-1.0518303-.6112595c-.0541496-.0314674-.1418533-.0314693-.1963615 0z" fill="#4c5c75"/></g></g></g><g><g><g><path d="m32.1027756 31.0334854c-.0543556.0313816-.0546379.0821838-.0004883.1136513l1.0518303.6112595c.0540047.0313816.1417046.0313816.1960602 0l1.058712-.611248c.0545082-.0314693.0547943-.0822697.0007896-.1136513l-1.0518303-.6112576c-.0541496-.0314693-.1418533-.0314713-.1963615-.0000019z" fill="#4c5c75"/></g></g></g><g><g><g><path d="m33.7923317 32.0153503c-.0543556.0313797-.0546417.08218-.0006409.1135635l1.0518341.6112556c.0540009.0313835.1418533.0314713.196209.0000877l1.625679-.9385872 1.5915451.9249077c.0540047.0313835.1417084.0313797.1960602 0l1.0588646-.6113358c.0543556-.0313797.0546417-.08218.0006371-.1135635l-2.7412376-1.5930347c-.0540009-.0313816-.1417007-.0313816-.1962051.0000877z" fill="#4c5c75"/></g></g></g></g><g><g><g><path d="m35.4815865 32.997036c-.0543556.0313835-.0546379.0821838-.0004883.1136513l1.0518303.6112595c.0540047.0313835.1417046.0313835.1960602 0l1.058712-.611248c.0545082-.0314674.0547943-.0822678.0007896-.1136513l-1.0518303-.6112595c-.0541496-.0314674-.1418533-.0314674-.1963577 0z" fill="#4c5c75"/></g></g></g><g><g><g><path d="m38.8951721 32.983532c-.0543518.0313797-.0546417.08218-.0006371.1135635l1.0518303.6112556c.0540009.0313835.1418571.0314674.196209.0000877l1.0588608-.6113358c.0543556-.0313797.054493-.0822678.0004921-.1136475l-1.0518303-.6112595c-.0540047-.0313835-.1417046-.0313835-.1960602 0z" fill="#4c5c75"/></g></g></g></g><g><g><g><g><path d="m43.6881218 31.678278-1.3984337.8071346-6.272438-3.6449623 1.3984336-.8073826z" fill="#dedffb"/></g></g></g><g><g><g><path d="m23.4199295 43.3867416-1.4033318.7992173-6.2763195-3.6448975 1.4034481-.7992172z" fill="#dedffb"/></g></g></g></g></g></g><g><path d="m34.7997055 24.8939018-21.6755123 12.5039826-.0419626-14.394249c0-.2660465.2380142-.6721649.4620981-.7981377l21.1993122-12.2519531z" fill="#fff"/></g></g></g></g></g><g><g><g><g><path d="m34.124649 22.9954491c0 .5-.3399658 1.0899658-.7699585 1.3399658l-17.1400146 9.9000244c-.210022.1199951-.4100342.1300049-.5499878.0499878l-1.2900391-.75c-.1400146-.0800171-.2299805-.25-.2299805-.5l-.0599975-18.3800039 18.7000122-10.789978 1.2799683.7499998z" fill="#dedffb"/></g></g></g><g enable-background="new"><g><path d="m15.4366684 33.7868843-.0589886-18.3778534-1.2884483-.7487745.0589886 18.3779278c.0007439.2475586.0870323.4195404.2257624.500248l1.2885237.748703c-.1388055-.0806342-.2250939-.252616-.2258378-.5002509z" fill="#dedffb"/></g><g><g><path d="m15.3776608 15.4090471-1.2884522-.7487678 18.6906605-10.7910574 1.2884521.7487672z" fill="#f3f1fc"/></g></g><g><g><path d="m34.0683212 4.6179891.0590096 18.3778744c.0014229.5006809-.3398361 1.0918236-.7678032 1.3389111l-17.1421967 9.8970528c-.4279661.2470856-.7792387.0557747-.7806578-.4449043l-.0590124-18.3778763z" fill="#f3f1fc"/></g><g><path d="m16.0786877 15.8121462 17.2934551-9.984375.0551758 17.1704102c.0009766.2460938-.2060547.6079102-.4174805.7299805l-16.8715801 9.741209z" fill="#fff"/></g></g></g><g><g><g><path d="m34.0646515 3.3054473v1.3099973l-18.6900025 10.7899786-1.289978-.75v-1.3099976c0-.5.3499756-1.0999756.7799683-1.3499756l17.1300049-9.8900146c.2200317-.1199952.4200439-.1400148.5599976-.0499878l1.25.7299805c.0100098 0 .0200195 0 .0200195.0100098.1500244.070007.2399902.2499997.2399902.5100094z" fill="#df3260"/></g></g></g><g enable-background="new"><g><path d="m32.5513649 2.0518956c-.1407394-.0818253-.3366013-.0684357-.555891.0580957l-17.1265984 9.8880482c-.4357567.2516499-.7847776.847188-.7833643 1.3478832l.0037193 1.3143349 1.2884483.7487745-.0037193-1.3143349c-.0014133-.5006952.3476076-1.0963078.7833633-1.3478832l17.1266003-9.8880482c.2192917-.1266057.4151497-.1399209.5558891-.0580957z" fill="#df3260"/></g><g><g><path d="m33.2839355 2.8587766c.4357491-.2515807.7792397-.0558369.7806587.4448433l.003727 1.3143692-18.6906604 10.791058-.003726-1.3143692c-.0014191-.5006809.3476229-1.0962572.7833738-1.3478374z" fill="#f45170"/></g></g></g></g><g><g><g><path d="m16.708971 13.2252626c.2256603-.1302843.4129829-.0324793.4137192.2268047.0007343.2593451-.1854229.5727797-.4110813.703064-.2178764.1257906-.4052124.0279932-.4059486-.2313519-.0007344-.2592839.1854362-.5727271.4033107-.6985168z" fill="#fff"/></g></g><g><g><path d="m18.1407223 12.3986416c.2178879-.1257982.4129944-.0324869.4137306.2267971.0007343.2593451-.1932068.5772743-.4110947.7030716-.2178764.1257906-.4129829.0324793-.4137192-.2268658-.0007343-.259284.1932068-.5772133.4110833-.7030029z" fill="#fff"/></g></g><g><g><path d="m19.572485 11.5720129c.2178745-.1257906.4052105-.0279932.4059467.2312908.0007343.2593451-.1854362.5727882-.4033108.6985779-.2256584.1302843-.4129963.0324869-.4137306-.2268581-.0007362-.2592841.1854343-.5727263.4110947-.7030106z" fill="#fff"/></g></g><g><g><path d="m32.7619057 4.0018597c.2100906-.1212966.3740273-.0278444.3746834.2045774.0006866.241457-.1621857.52353-.3722763.6448264l-7.0187359 4.0522685c-.2100906.1212969-.3740253.0279055-.3747101-.2135515-.0006599-.2324219.1622105-.5145559.372303-.6358519z" fill="#fff"/></g></g></g></g></g><g><g><g><g><path d="m18.4049339 19.0483761.0013714.4836254-1.6478405.9513817-.0013714-.4836254z" fill="#dedffb"/></g></g><g><g><path d="m18.4014778 17.8290348.0013714.4836254-1.6478405.9513817-.0013714-.4836254z" fill="#dedffb"/></g></g><g><g><path d="m18.3980293 16.6126366.0013638.4807033-1.6478424.9513817-.0013619-.4807053z" fill="#dedffb"/></g></g><g><g><path d="m18.3945732 15.3932943.0013714.4836264-1.6478424.9513817-.0013695-.4836254z" fill="#dedffb"/></g></g><g enable-background="new"><g><g><path d="m32.7582664 16.865221-3.5970668 2.0767632.0013427.4806804 3.5957241-2.076025z" fill="#dedffb"/></g></g><g><g><path d="m31.0292873 19.08181.0013714.4836273-6.4025631 3.6965199-.0013714-.4836254z" fill="#dedffb"/></g></g><g><g><path d="m32.3207512 15.8964567.0013695.4836264-6.6678582 3.8496895-.0013713-.4836254z" fill="#dedffb"/></g></g><g><g><path d="m31.4210663 13.9761629.0013637.4807034-4.7215786 2.7260046-.0013618-.4807034z" fill="#dedffb"/></g></g><g><g><path d="m32.7582664 10.7614346-5.2137756 3.0101738.0014115.4836359 5.2123641-3.0093689z" fill="#dedffb"/></g></g><g><g><path d="m28.513279 19.3160381.0013618.4807053-6.4229755 3.7083054-.0013619-.4807034z" fill="#dba660"/></g></g><g><g><path d="m32.7582664 8.3217602-3.3560218 1.9375639.0013427.4806795 3.3546791-1.9368258z" fill="#8fabfe"/></g></g><g><g><path d="m28.87113 16.6667805.0013695.4836254-5.5327397 3.1943283-.0013714-.4836254z" fill="#dedffb"/></g></g><g><g><path d="m29.1473713 14.067564.0013637.4806833-4.3568134 2.5154066-.0013618-.4806823z" fill="#dedffb"/></g></g><g><g><path d="m23.693121 23.3173485.0013713.4836254-4.2547855 2.456501-.0013714-.4836254z" fill="#dedffb"/></g></g><g><g><path d="m24.6402149 20.3308163.0013714.4836254-5.2087841 3.0072937-.0013714-.4836254z" fill="#dedffb"/></g></g><g><g><path d="m32.7582664 9.5401525-8.9260578 5.1534472.0013447.4836349 8.9247131-5.152708z" fill="#dedffb"/></g></g><g><g><path d="m22.5680351 20.3058739.0013714.4836254-3.1400604 1.8129139-.0013714-.4836254z" fill="#dedffb"/></g></g><g><g><path d="m26.212265 16.9834652.0013638.4807033-6.7877407 3.9189034-.0013619-.4807034z" fill="#78e75a"/></g></g><g><g><path d="m30.5518036 8.3743143.0013714.4836254-7.0708885 4.0823794-.0013714-.4836255z" fill="#dedffb"/></g></g><g><g><path d="m26.9144859 14.1353846.0013714.4836254-7.4968738 4.3283224-.0013714-.4836254z" fill="#dedffb"/></g></g><g><g><path d="m28.2467747 10.9264603.0013618.4807033-8.8360672 5.1015072-.0013618-.4807053z" fill="#dedffb"/></g></g></g><g><g><path d="m23.5355587 17.3075466.0013638.4806824-4.1144906 2.3755016-.0013637-.4806824z" fill="#dedffb"/></g></g><g><g><path d="m22.939394 15.2090683.0013695.4836254-3.5252381 2.0352974-.0013694-.4836254z" fill="#f45170"/></g></g><g><g><path d="m22.6697521 12.9250183.0013714.4836264-3.2625027 1.8836059-.0013713-.4836254z" fill="#dedffb"/></g></g><g><g><path d="m18.408392 20.2677174.0013618.4806842-1.6478405.9513817-.0013618-.4806843z" fill="#dedffb"/></g></g><g><g><path d="m18.4118481 21.4870377.0013637.4807052-1.6478405.9513798-.0013637-.4807034z" fill="#dedffb"/></g></g><g><g><path d="m18.4152966 22.7034569.0013713.4836273-1.6478405.9513798-.0013713-.4836254z" fill="#dedffb"/></g></g><g><g><path d="m18.4187546 23.9227791.0013695.4836254-1.6478405.9513817-.0013714-.4836254z" fill="#dedffb"/></g></g><g><g><path d="m18.4256592 26.3585186.0013714.4836254-1.6478405.9513817-.0013714-.4836254z" fill="#dedffb"/></g></g><g><g><path d="m18.4222107 25.1421204.0013618.4807033-1.6478405.9513817-.0013618-.4807034z" fill="#dedffb"/></g></g><g><g><path d="m21.3990211 23.4234581.0013638.4807034-1.9641342 1.1339931-.0013638-.4807034z" fill="#dedffb"/></g></g></g></g><g><g><g><g><path d="m18.4013195 30.4259167-1.6499634.9599609v-1.6999512l1.6400147-.9600219z" fill="#b28afd"/></g></g><g enable-background="new"><g><g><path d="m32.7582664 21.6580696-3.3560218 1.9375649.0013427.4806785 3.3546791-1.9368248z" fill="#8fabfe"/></g></g><g><g><path d="m30.5518036 21.7106247.0013714.4836254-7.0708885 4.0823803-.0013714-.4836273z" fill="#dedffb"/></g></g><g><g><path d="m28.2467747 24.2627697.0013618.4807053-8.8360672 5.1015052-.0013618-.4807033z" fill="#dedffb"/></g></g></g><g><g><path d="m22.6697521 26.2613297.0013714.4836254-3.2625027 1.8836059-.0013713-.4836254z" fill="#dedffb"/></g></g></g></g></g><g><g><g><g><g><path d="m43.544693 16.1754417c0 .5899658-.4100342 1.3099976-.9300537 1.5999756l-4.1699829 2.4199829c-.2600098.1500244-.4899902.1600342-.6599731.0600586-.0200195-.0100098-.0400391-.0200195-.0500488-.0300293l-.75-.4299927c-.1599731-.1000366-.2599487-.2999878-.2699585-.6000366l-.0100098-4.7899771c0-.5899658.4099731-1.3099976.9199829-1.5999756l4.1799927-2.4100342c.2600098-.1499634.4900513-.1599731.6600342-.0700073l.7399902.4300537c.0200195.0199585.039978.0299683.0599976.039978.1699829.0899658.2700195.2999878.2700195.5899658z" fill="#bf7d5a"/></g></g></g></g></g><g><g><g><path d="m37.7833748 20.2563171c-.1660042-.0964642-.2686157-.3021946-.2694435-.5952606l-.0135765-4.791358c-.0016975-.5899868.4096222-1.3079062.9230499-1.6043673l4.1745377-2.4101734c.2583427-.1491709.4927406-.1628408.6620979-.0644026l-.7945251-.4617319c-.1693535-.0984383-.4037514-.0847692-.6620941.0644016l-4.1745377 2.4101744c-.5134277.2964611-.9247475 1.0143805-.9230537 1.6043663l.0135803 4.791358c.000824.2931118.1034355.4987965.2693977.5952625z" fill="#bf7d5a"/></g><g><g><path d="m42.5979271 10.8551645c.5134277-.2964287.9322395-.0577431.9339104.5322266l.0135841 4.7913618c.0016747.5899696-.4144325 1.305151-.9278603 1.6015797l-4.1745529 2.4101772c-.5134277.2964287-.9274216.0605068-.9290962-.5294628l-.0135803-4.7913628c-.0016747-.5899687.4096146-1.3079138.9230461-1.6043425z" fill="#dba660"/></g></g></g><g><g><g><g><path d="m39.5985031 14.9530964c.0532799-.0307608.1063423-.03543.1440926-.0052938.0692024.0513182.0627098.1939383-.0198021.3209276l-.7219124 1.134943.7294159.2930603c.0795135.0334721.0902405.166151.0215645.3009987-.0377731.0733929-.0928688.129015-.1480179.1608562-.0413704.0238838-.0862312.0339088-.1242523.020155l-.8953629-.3678493c-.0414925-.0196896-.0657997-.065176-.065979-.1285744-.0001907-.0673218.0237808-.1406803.0650368-.2041893l.8903503-1.3988314c.0359383-.0568314.0804825-.1005774.1248665-.1262026z" fill="#fff"/></g></g><g><g><path d="m41.1586418 13.3357658c.0272102-.0157108.0549126-.0250301.081356-.0261993.0966644-.0042267.1384048.1026087.0939026.2394056l-1.2733536 3.9331751c-.0342369.1030731-.103054.186451-.1754494.2282467l-.0793419.0259781c-.0966682.0081844-.1384163-.102602-.0939026-.2354221l1.2733421-3.9371233c.0323373-.0993948.1011583-.1863251.1734468-.2280608z" fill="#fff"/></g></g><g><g><path d="m41.4394951 13.8901997c.0451775-.0260849.0905266-.0342379.1266785-.0190268l.8953629.3678493c.041481.0157394.065773.0612335.0659637.1285543.0001831.0633984-.023777.1367512-.0650215.2042093l-.8938026 1.4008217c-.0343819.0555582-.0791397.0972757-.1239586.1231508-.0551605.031847-.1069298.0379238-.1450081.0083256-.0692139-.0552406-.0592613-.1998577.0198021-.3248844l.7219124-1.1309853-.7259674-.2990084c-.0795135-.0334444-.0902519-.1661167-.0215645-.2970438.0374564-.0735577.0914115-.1306751.1456031-.1619623z" fill="#fff"/></g></g></g></g></g><g><g><g><path d="m3.544693 44.2454491c-.0200195-.0100098-.0400391-.0200195-.0500488-.0300293-.0199585-.0100098-.039978-.0299683-.0599976-.0599976.0300293.039978.0700073.0700073.1100464.0900269z" fill="#678aee"/></g><g><g><path d="m9.3046417 40.165432c0 .5900269-.4199829 1.3099976-.9299927 1.6099854l-4.1699829 2.4100342c-.2600098.1499634-.4899902.1599731-.6599731.0599976-.0400391-.0200195-.0800171-.0500488-.1100464-.0900269.0200195.0300293.0400391.0499878.0599976.0599976l-.75-.4299927c-.1699829-.0999756-.2699585-.2999878-.2699585-.5900269l-.0100098-4.7999878c0-.5899658.4099731-1.2999878.9199829-1.5999756l4.1799927-2.4100342c.25-.1499634.4899902-.1599731.6600342-.0599976l.7199707.4200439.0700073.039978c.1699829.0900269.2700195.289978.2700195.5900269z" fill="#678aee"/></g><g><path d="m3.544693 44.2454491c-.0200195-.0100098-.0400391-.0200195-.0500488-.0300293-.0199585-.0100098-.039978-.0299683-.0599976-.0599976.0300293.039978.0700073.0700073.1100464.0900269z" fill="#678aee"/></g></g></g></g><g><g><g><path d="m3.5400553 44.2477646c-.1660054-.0964661-.2686179-.3021927-.2694435-.5952606l-.0135777-4.791359c-.0016971-.5899849.4096236-1.3079033.9230521-1.6043663l4.1745377-2.4101753c.2583427-.1491699.4927406-.162838.6620941-.0643997l-.7945223-.4617348c-.1693544-.0984383-.4037523-.0847664-.6620951.0644035l-4.1745372 2.4101753c-.5134287.2964592-.9247494 1.0143776-.9230523 1.6043663l.0135777 4.7913551c.0008256.2931137.1034379.4987984.2693975.5952644z" fill="#678aee"/></g><g><g><path d="m8.3546066 34.846611c.5134296-.2964287.9322395-.0577431.9339123.5322266l.0135832 4.7913628c.0016727.5899696-.4144335 1.3051529-.9278622 1.6015816l-4.1745501 2.4101753c-.5134292.2964287-.927424.0605049-.9290965-.5294647l-.0135833-4.791359c-.0016727-.5899696.4096177-1.3079147.9230471-1.6043434z" fill="#8fabfe"/></g></g></g></g><g><g><g><g><path d="m8.1092348 38.5158806c0 .0499878-.0100098.1000366-.0400391.1500244-.0199585.0599976-.0599976.0999756-.1099858.1300049-.0800171.0700073-.1300049.1199951-.1500244.1499634-.039978.0500488-.0499878.0700073-.0499878.0800171-.0100098.0300293-.0100098.0599976-.0100098.0999756v.6900024c0 .1700439-.039978.3200073-.1199951.4400024-.0799561.1100464-.1999512.210022-.3399658.2900391l-.0300293.0199585c-.039978.0200195-.0700073.0300293-.0999756.0300293-.0300293 0-.0599976-.0200195-.0800171-.0200195-.0299683-.0199585-.0800171-.0700073-.0800171-.1599731 0-.0499878.0100098-.1000366.0500488-.1600342.0299683-.0499878.0599976-.0899658.1099854-.1199951l.039978-.0199585c.0700073-.0400391.0900269-.0700073.0900269-.0700073.0100098-.0200195.0199585-.0400391.0199585-.0599976v-.7300415c0-.1599731.0500488-.3099976.1500244-.4599609-.0200195-.0100098-.039978-.0200195-.0499878-.0400391-.0700073-.0599976-.1000366-.1499634-.1099854-.2799683v-.6799927s0 0-.0100098 0l-.0400391.0299683c-.0799561.0400391-.1499634.0200195-.1799927 0-.0199585-.0100098-.0799561-.0599976-.0799561-.1499634 0-.0599976.0199585-.1100464.0499878-.1600342.0299683-.0499878.0700073-.0899658.1099854-.1199951l.0300293-.0200195c.1599731-.0899658.2799683-.1199951.3799438-.0999756.1200562.0300293.1800537.1500244.1900024.3599854v.7399902c.0200195 0 .0500488-.0099487.1199951-.0299683.0900269-.039978.1500249-.0100098.1700444.0100098.0499881.039978.0700076.0899658.0700076.1599731z" fill="#fff"/></g><g><path d="m5.5691953 41.3559074c0 .0499878-.0199585.1099854-.0499878.1599731-.0299683.0499878-.0700073.0900269-.1099854.1199951l-.0300293.0200195c-.1300049.0700073-.2299805.0999756-.3099976.0999756-.0299683 0-.0499878 0-.0700073-.0099487-.1199951-.0300293-.1799927-.1500244-.1799927-.3500366l-.0100097-.6900024v-.0499878c-.0199585 0-.0499878.0100098-.1199951.0300293-.0799561.039978-.1399536.0099487-.1699829-.0100098-.039978-.0400391-.0700073-.0800171-.0700073-.1600342 0-.0499878.0100098-.1099854.0400391-.1599731.0199585-.0400391.0599976-.0900269.0999756-.1199951.0900269-.0700073.1400146-.1199951.1599731-.1500244.0400391-.0499878.0500488-.0800171.0500488-.0800171.0099487-.0299683.0099487-.0599976.0099487-.0999756v-.6900024c0-.1699829.0400391-.3200073.1200562-.4400024.0899658-.1199951.1999512-.210022.3399658-.289978l.0300293-.0200195c.0799561-.0499878.1499634-.0299683.1799927-.0100098.0299683.0200195.0799561.0700073.0799561.1600342 0 .0499878-.0099487.0999756-.0499878.1499634-.0299683.0599976-.0599976.1000366-.1099854.1199951l-.039978.0300293c-.0800171.039978-.0900269.0700073-.0900269.0700073-.0200195.0199585-.0200195.039978-.0200195.0599976v.7299805c0 .1600342-.0499878.3099976-.1499634.460022.0199585.0100098.039978.0199585.0499878.039978.0700073.0599976.0999756.1500244.0999756.2800293l.0100098.6799927h.0100098l.039978-.0300293c.0800171-.0499878.1400146-.0199585.1700439-.0100098.039978.0200194.0899658.0599974.0899658.160034z" fill="#fff"/></g></g></g></g></g></svg>