<svg id="Layer_1" enable-background="new 0 0 512 512" height="512" viewBox="0 0 512 512" width="512" xmlns="http://www.w3.org/2000/svg"><g clip-rule="evenodd" fill-rule="evenodd"><g fill="#a6e7f0"><path d="m197.515 49.224c-2.342 2.343-6.141 2.343-8.484 0-2.342-2.342-2.342-6.141 0-8.484 8.707-8.707 19.144-15.737 30.772-20.554 11.18-4.63 23.407-7.186 36.197-7.186s25.018 2.556 36.197 7.187c11.628 4.816 22.064 11.847 30.772 20.554 2.342 2.342 2.342 6.141 0 8.484-2.343 2.343-6.142 2.343-8.484 0-7.651-7.65-16.753-13.8-26.834-17.975-9.721-4.027-20.41-6.25-31.651-6.25s-21.93 2.223-31.65 6.249c-10.082 4.176-19.184 10.325-26.835 17.975z"/><path d="m224.887 76.596c-2.342 2.343-6.141 2.343-8.484 0-2.342-2.343-2.342-6.142 0-8.484 5.138-5.138 11.311-9.293 18.203-12.147 6.619-2.742 13.847-4.255 21.394-4.255s14.775 1.513 21.394 4.255c6.892 2.854 13.065 7.009 18.203 12.147 2.342 2.343 2.342 6.142 0 8.484-2.343 2.343-6.142 2.343-8.484 0-4.081-4.081-8.921-7.355-14.266-9.569-5.161-2.138-10.85-3.318-16.847-3.318s-11.686 1.18-16.847 3.318c-5.345 2.214-10.184 5.488-14.266 9.569z"/><ellipse cx="256.001" cy="107.709" rx="8" ry="8" transform="matrix(.707 -.707 .707 .707 -1.181 212.567)"/></g><g><path d="m262 132.069v123.736l137.155-137.155 8.484 8.484-137.155 137.155h193.967v12.001h-193.967l137.155 137.155-8.484 8.484-137.155-137.155v193.967h-12v-193.967l-137.155 137.155-8.484-8.484 137.155-137.155h-193.967v-12.001h193.967l-137.155-137.155 8.484-8.484 137.155 137.155v-123.736z" fill="#d4f2f6"/><path d="m417.723 108.567c8.454 8.454 8.454 22.16 0 30.614s-22.16 8.454-30.614 0-8.454-22.16 0-30.614 22.16-8.454 30.614 0zm-323.446 0c8.454-8.454 22.16-8.454 30.614 0s8.454 22.16 0 30.614-22.16 8.454-30.614 0-8.454-22.16 0-30.614zm-66.988 161.722c0-11.955 9.692-21.647 21.647-21.647s21.647 9.692 21.647 21.647-9.692 21.647-21.647 21.647c-11.955.001-21.647-9.691-21.647-21.647zm66.988 161.723c-8.454-8.454-8.454-22.16 0-30.614s22.16-8.454 30.614 0 8.454 22.16 0 30.614-22.16 8.454-30.614 0zm161.723 66.988c-11.955 0-21.647-9.692-21.647-21.647s9.692-21.647 21.647-21.647 21.647 9.692 21.647 21.647-9.692 21.647-21.647 21.647zm161.723-66.988c-8.454 8.454-22.16 8.454-30.614 0s-8.454-22.16 0-30.614 22.16-8.454 30.614 0 8.454 22.161 0 30.614zm66.988-161.723c0 11.955-9.692 21.647-21.647 21.647s-21.647-9.692-21.647-21.647 9.692-21.647 21.647-21.647 21.647 9.692 21.647 21.647z" fill="#fad97f"/></g><g><circle cx="256" cy="270.289" fill="#a6e7f0" r="138.877"/><path d="m349.865 167.931c3.191 2.929 6.247 6.002 9.153 9.215-12.766 5.328-26.465 9.698-40.888 12.965 8.05 21.071 13.019 46.589 13.653 74.165h62.957c.084 1.99.137 3.989.137 6s-.052 4.01-.137 6h-62.956c-.631 27.592-5.603 53.124-13.658 74.204 14.415 3.265 28.107 7.632 40.867 12.955-2.908 3.212-5.964 6.286-9.157 9.214-11.47-4.492-23.682-8.185-36.477-10.967-.864 1.828-1.753 3.615-2.667 5.353-13.684 26.03-32.995 42.13-54.691 42.13s-41.007-16.1-54.691-42.13c-.914-1.739-1.803-3.525-2.667-5.353-12.795 2.783-25.007 6.475-36.477 10.967-3.193-2.928-6.25-6.001-9.157-9.214 12.76-5.323 26.452-9.69 40.867-12.955-8.055-21.08-13.027-46.612-13.658-74.204h-62.958c-.084-1.991-.137-3.989-.137-6s.052-4.01.137-6h62.957c.634-27.576 5.603-53.094 13.653-74.165-14.423-3.268-28.122-7.638-40.888-12.965 2.906-3.212 5.962-6.286 9.153-9.215 11.478 4.497 23.698 8.193 36.502 10.978.866-1.832 1.756-3.622 2.673-5.365 13.684-26.03 32.995-42.13 54.691-42.13s41.007 16.1 54.691 42.13c.916 1.742 1.807 3.532 2.673 5.365 12.803-2.785 25.023-6.481 36.5-10.978zm-87.865-23.933v40.892c13.486-.286 26.593-1.532 39.185-3.64-.359-.717-.723-1.426-1.091-2.126-10.21-19.421-23.533-32.318-38.094-35.126zm0 52.894v67.384h57.776c-.643-26.953-5.59-51.685-13.554-71.749-14.217 2.554-29.021 4.052-44.222 4.365zm0 79.384v67.423c15.199.313 30.001 1.811 44.217 4.365 7.969-20.073 12.918-44.819 13.559-71.788zm0 79.425v40.88c14.56-2.808 27.884-15.705 38.093-35.126.366-.696.728-1.402 1.086-2.114-12.59-2.109-25.695-3.354-39.179-3.64zm-12 40.88v-40.88c-13.483.286-26.589 1.531-39.179 3.639.358.713.719 1.418 1.086 2.114 10.209 19.422 23.532 32.319 38.093 35.127zm0-52.882v-67.423h-57.777c.641 26.969 5.59 51.715 13.559 71.788 14.217-2.554 29.019-4.052 44.218-4.365zm0-79.423v-67.384c-15.201-.313-30.005-1.811-44.222-4.365-7.964 20.064-12.91 44.796-13.554 71.749zm0-79.386v-40.892c-14.56 2.808-27.884 15.705-38.093 35.126-.368.7-.732 1.409-1.091 2.126 12.591 2.109 25.698 3.355 39.184 3.64z" fill="#6bd9e7"/></g></g></svg>