<svg id="Layer_1" enable-background="new 0 0 128 128" height="512" viewBox="0 0 128 128" width="512" xmlns="http://www.w3.org/2000/svg"><g><g fill="#e6e7e8"><path d="m64.521 10.783h-9.982c-6.056 0-10.981 4.926-10.981 10.982v1.889h-5.335c-7.852 0-14.296 6.138-14.79 13.867-5.179.49-9.244 4.863-9.244 10.168v10.831c-4.316.498-7.679 4.174-7.679 8.622v13.661c0 4.447 3.362 8.124 7.679 8.622v5.2c0 5.309 4.071 9.685 9.256 10.169.485 5.468 5.092 9.771 10.684 9.771h9.495c.491 3.75 3.707 6.654 7.589 6.654h13.31c.553 0 1-.448 1-1v-108.436c-.002-.553-.449-1-1.002-1z"/><path d="m121.322 56.144h-6.847c-1.137-5.125-3.146-9.969-5.984-14.424l4.849-4.848c.787-.787 1.221-1.833 1.221-2.947s-.434-2.161-1.221-2.947l-8.045-8.044c-.786-.787-1.833-1.221-2.947-1.221-1.113 0-2.16.434-2.947 1.221l-4.848 4.848c-4.454-2.838-9.299-4.848-14.424-5.985v-6.846c0-2.298-1.87-4.168-4.168-4.168h-5.693c-.553 0-1 .448-1 1v28.297c0 .552.452 1 1.005 1 13.741 0 24.921 11.179 24.921 24.92 0 13.733-11.166 24.907-24.896 24.921-.604-.013-1.03.438-1.03 1v28.297c0 .552.447 1 1 1h5.693c2.298 0 4.168-1.87 4.168-4.168v-6.846c5.125-1.137 9.97-3.147 14.424-5.985l4.848 4.848c1.625 1.625 4.27 1.625 5.895 0l8.045-8.044c.787-.787 1.221-1.834 1.221-2.947s-.434-2.16-1.221-2.947l-4.849-4.848c2.838-4.455 4.848-9.299 5.984-14.424h6.847c2.298 0 4.168-1.87 4.168-4.168v-11.377c-.001-2.299-1.871-4.168-4.169-4.168z"/></g><g><path d="m11.188 55.463v-11.773c0-5.089 4.125-9.214 9.214-9.214 0-7.633 6.188-13.821 13.821-13.821h6.335v-2.889c0-5.513 4.469-9.982 9.982-9.982h9.982v101.78 6.655h-13.31c-3.675 0-6.655-2.979-6.655-6.655h-10.43c-5.371 0-9.726-4.354-9.726-9.726-5.089 0-9.214-4.125-9.214-9.214v-6.144c-4.241 0-7.678-3.438-7.678-7.678v-13.661c.001-4.241 3.438-7.678 7.679-7.678z" fill="#6dc9f7"/><path d="m117.322 53.144h-7.656c-1.148-5.653-3.377-10.911-6.455-15.558l5.421-5.421c1.237-1.237 1.237-3.243 0-4.48l-8.044-8.044c-1.237-1.237-3.243-1.237-4.48 0l-5.421 5.421c-4.647-3.078-9.905-5.307-15.558-6.455v-7.656c0-1.75-1.418-3.168-3.168-3.168h-5.693v28.297h.005c14.316 0 25.921 11.605 25.921 25.921s-11.605 25.921-25.921 25.921c-.002 0-.003 0-.005 0v28.297h5.693c1.75 0 3.168-1.418 3.168-3.168v-7.656c5.653-1.148 10.911-3.377 15.558-6.455l5.421 5.421c1.237 1.237 3.243 1.237 4.48 0l8.044-8.044c1.237-1.237 1.237-3.243 0-4.48l-5.421-5.421c3.078-4.648 5.307-9.905 6.455-15.558h7.656c1.75 0 3.168-1.418 3.168-3.168v-11.378c0-1.75-1.418-3.168-3.168-3.168z" fill="#fa759e"/><path d="m94.956 62c0-15.841-12.842-28.682-28.682-28.682-.002 0-.004 0-.006 0v2.762h.005c14.316 0 25.921 11.605 25.921 25.921s-11.605 25.921-25.921 25.921c-.002 0-.003 0-.005 0v2.762h.006c15.84-.002 28.682-12.843 28.682-28.684z" fill="#fff"/><g fill="#3a2c60"><path d="m60.521 6.783h-9.982c-6.056 0-10.981 4.926-10.981 10.982v1.889h-5.335c-7.852 0-14.296 6.138-14.79 13.867-5.179.49-9.244 4.863-9.244 10.168v10.831c-4.316.498-7.679 4.174-7.679 8.622v13.661c0 4.447 3.362 8.124 7.679 8.622v5.2c0 5.309 4.071 9.685 9.256 10.169.485 5.468 5.092 9.771 10.684 9.771h9.495c.491 3.75 3.707 6.654 7.589 6.654h13.31c.553 0 1-.448 1-1v-73.219c0-.552-.447-1-1-1s-1 .448-1 1v11.685c-4.811-.162-8.679-4.116-8.679-8.967 0-.552-.447-1-1-1s-1 .448-1 1c0 5.953 4.764 10.804 10.679 10.967v22.857c-5.915.162-10.679 5.013-10.679 10.967 0 .552.447 1 1 1s1-.448 1-1c0-4.85 3.867-8.805 8.679-8.967v33.675h-12.31c-3.118 0-5.654-2.537-5.654-5.654 0-.083 0-.386 0-.47 0-4.953 4.029-8.982 8.982-8.982.553 0 1-.448 1-1s-.447-1-1-1c-5.877 0-10.676 4.643-10.956 10.452h-9.457c-4.812 0-8.726-3.915-8.726-8.726 0-.005-.003-.009-.003-.015 0-.002.001-.003.001-.005v-7.235c0-2.836 2.307-5.143 5.143-5.143h.021c3.336-.025 6.128-2.329 6.902-5.419 5.888-.192 10.622-5.03 10.622-10.964 0-.552-.447-1-1-1s-1 .448-1 1c0 4.757-3.72 8.651-8.402 8.953v-4.831c0-.552-.447-1-1-1s-1 .448-1 1v5.119c0 2.835-2.322 5.143-5.177 5.143-.007 0-.014 0-.021 0-3.913.03-7.088 3.223-7.088 7.143v6.187c-4.057-.497-7.212-3.957-7.212-8.146v-5.56s-.008-.611-.009-.627c.132-4.838 4.1-8.735 8.969-8.735.553 0 1-.448 1-1s-.447-1-1-1c-5.623 0-10.266 4.25-10.901 9.706-3.237-.46-5.738-3.242-5.738-6.604v-13.663c0-3.174 2.227-5.832 5.199-6.508-.794 1.518-1.249 3.24-1.249 5.068 0 .552.447 1 1 1s1-.448 1-1c0-4.953 4.029-8.982 8.982-8.982.553 0 1-.448 1-1s-.447-1-1-1c-2.781 0-5.317 1.048-7.254 2.758v-9.788c0-4.206 3.178-7.678 7.258-8.154.333 3.928 2.741 7.264 6.122 8.922-.006.043-.025.081-.025.126 0 6.056 4.926 10.982 10.981 10.982.553 0 1-.448 1-1s-.447-1-1-1c-4.742 0-8.628-3.697-8.95-8.359.898.238 1.836.377 2.807.377.553 0 1-.448 1-1s-.447-1-1-1c-4.953 0-8.982-4.029-8.982-8.981 0-.02.003-.102.003-.127 0-7.07 5.751-12.821 12.82-12.821h3.801c-1.804 1.958-2.917 4.562-2.917 7.428 0 .552.447 1 1 1s1-.448 1-1c0-4.953 4.029-8.982 8.981-8.982.553 0 1-.448 1-1s-.447-1-1-1c-1.617 0-3.148.36-4.531.99v-1.326c0-4.953 4.029-8.982 8.981-8.982h8.982v13.342c0 .552.447 1 1 1s1-.448 1-1v-14.341c.003-.553-.444-1-.997-1z"/><path d="m60.521 25.5c-.553 0-1 .448-1 1v12c0 .552.447 1 1 1s1-.448 1-1v-12c0-.552-.447-1-1-1z"/><path d="m117.322 52.144h-6.847c-1.137-5.125-3.146-9.969-5.984-14.424l4.849-4.848c.787-.787 1.221-1.833 1.221-2.947s-.434-2.161-1.221-2.947l-8.045-8.044c-.786-.787-1.833-1.221-2.947-1.221-1.113 0-2.16.434-2.947 1.221l-4.848 4.848c-4.454-2.838-9.299-4.848-14.424-5.985v-6.846c0-2.298-1.87-4.168-4.168-4.168h-5.693c-.553 0-1 .448-1 1v28.297c0 .552.452 1 1.005 1 13.741 0 24.921 11.179 24.921 24.92 0 13.733-11.166 24.907-24.896 24.921-.011 0-.021 0-.03 0-.553 0-1 .448-1 1v28.297c0 .552.447 1 1 1h5.693c2.298 0 4.168-1.87 4.168-4.168v-6.846c5.125-1.137 9.97-3.147 14.424-5.985l4.848 4.848c1.625 1.625 4.27 1.625 5.895 0l8.045-8.044c.787-.787 1.221-1.834 1.221-2.947s-.434-2.16-1.221-2.947l-4.849-4.848c2.838-4.455 4.848-9.299 5.984-14.424h6.847c2.298 0 4.168-1.87 4.168-4.168v-11.377c-.001-2.299-1.871-4.168-4.169-4.168zm2.168 15.544c0 1.195-.973 2.168-2.168 2.168h-7.656c-.476 0-.886.335-.98.801-1.103 5.433-3.225 10.549-6.308 15.205-.263.396-.209.923.127 1.259l5.421 5.421c.846.845.846 2.221 0 3.066l-8.045 8.044c-.846.845-2.221.845-3.066 0l-5.42-5.421c-.336-.337-.865-.389-1.259-.127-4.656 3.083-9.771 5.206-15.206 6.309-.466.095-.801.504-.801.98v7.656c0 1.195-.973 2.168-2.168 2.168h-4.693v-26.314c14.384-.526 25.925-12.392 25.925-26.903 0-14.51-11.538-26.375-25.926-26.902v-26.315h4.693c1.195 0 2.168.973 2.168 2.168v7.656c0 .476.335.885.801.98 5.435 1.103 10.55 3.226 15.206 6.309.394.261.923.21 1.259-.127l5.42-5.421c.818-.819 2.248-.819 3.066 0l8.045 8.044c.409.41.635.954.635 1.533s-.226 1.123-.635 1.533l-5.421 5.421c-.336.336-.39.863-.127 1.259 3.083 4.656 5.205 9.771 6.308 15.205.095.466.505.801.98.801h7.656c1.195 0 2.168.973 2.168 2.168v11.376z"/></g></g></g></svg>